<svg width="30" height="30" viewBox="0 0 30 30" fill="none" xmlns="http://www.w3.org/2000/svg">
<g clip-path="url(#clip0_880_9130)">
<path d="M0 23.75C0.00198482 25.407 0.661102 26.9956 1.83277 28.1672C3.00445 29.3389 4.59301 29.998 6.25 30H23.75C25.407 29.998 26.9956 29.3389 28.1672 28.1672C29.3389 26.9956 29.998 25.407 30 23.75V12.5H0V23.75ZM21.25 18.125C21.6208 18.125 21.9834 18.235 22.2917 18.441C22.6 18.647 22.8404 18.9399 22.9823 19.2825C23.1242 19.6251 23.1613 20.0021 23.089 20.3658C23.0166 20.7295 22.838 21.0636 22.5758 21.3258C22.3136 21.588 21.9795 21.7666 21.6158 21.839C21.2521 21.9113 20.8751 21.8742 20.5325 21.7323C20.1899 21.5904 19.897 21.35 19.691 21.0417C19.485 20.7334 19.375 20.3708 19.375 20C19.375 19.5027 19.5725 19.0258 19.9242 18.6742C20.2758 18.3225 20.7527 18.125 21.25 18.125ZM15 18.125C15.3708 18.125 15.7334 18.235 16.0417 18.441C16.35 18.647 16.5904 18.9399 16.7323 19.2825C16.8742 19.6251 16.9113 20.0021 16.839 20.3658C16.7666 20.7295 16.588 21.0636 16.3258 21.3258C16.0636 21.588 15.7295 21.7666 15.3658 21.839C15.0021 21.9113 14.6251 21.8742 14.2825 21.7323C13.9399 21.5904 13.647 21.35 13.441 21.0417C13.235 20.7334 13.125 20.3708 13.125 20C13.125 19.5027 13.3225 19.0258 13.6742 18.6742C14.0258 18.3225 14.5027 18.125 15 18.125ZM8.75 18.125C9.12084 18.125 9.48335 18.235 9.79169 18.441C10.1 18.647 10.3404 18.9399 10.4823 19.2825C10.6242 19.6251 10.6613 20.0021 10.589 20.3658C10.5166 20.7295 10.338 21.0636 10.0758 21.3258C9.8136 21.588 9.47951 21.7666 9.11579 21.839C8.75208 21.9113 8.37508 21.8742 8.03247 21.7323C7.68986 21.5904 7.39702 21.35 7.19099 21.0417C6.98497 20.7334 6.875 20.3708 6.875 20C6.875 19.5027 7.07254 19.0258 7.42417 18.6742C7.77581 18.3225 8.25272 18.125 8.75 18.125Z" fill="black"/>
<path d="M23.75 2.5H22.5V1.25C22.5 0.918479 22.3683 0.600537 22.1339 0.366117C21.8995 0.131696 21.5815 0 21.25 0C20.9185 0 20.6005 0.131696 20.3661 0.366117C20.1317 0.600537 20 0.918479 20 1.25V2.5H10V1.25C10 0.918479 9.8683 0.600537 9.63388 0.366117C9.39946 0.131696 9.08152 0 8.75 0C8.41848 0 8.10054 0.131696 7.86612 0.366117C7.6317 0.600537 7.5 0.918479 7.5 1.25V2.5H6.25C4.59301 2.50198 3.00445 3.1611 1.83277 4.33278C0.661102 5.50445 0.00198482 7.09301 0 8.75L0 10H30V8.75C29.998 7.09301 29.3389 5.50445 28.1672 4.33278C26.9956 3.1611 25.407 2.50198 23.75 2.5Z" fill="black"/>
</g>
<defs>
<clipPath id="clip0_880_9130">
<rect width="30" height="30" fill="white"/>
</clipPath>
</defs>
</svg>
