<svg width="30" height="30" viewBox="0 0 30 30" fill="none" xmlns="http://www.w3.org/2000/svg">
<g clip-path="url(#clip0_880_9135)">
<path d="M26.9073 10.355L17.421 1.09877C16.5973 0.273772 15.4123 -0.129978 14.261 0.0350217L5.65102 1.21252C4.96727 1.30627 4.48852 1.93627 4.58227 2.62002C4.67602 3.30377 5.30477 3.78127 5.99102 3.68877L14.6023 2.51127C14.9848 2.45877 15.3798 2.59002 15.666 2.87627L25.1535 12.1325C26.4598 13.4388 26.5873 15.4825 25.5573 16.9413C25.2648 16.3575 24.9035 15.8013 24.4185 15.3163L15.0748 6.05127C14.2523 5.22877 13.0785 4.83252 11.9148 4.98752L3.30352 6.16502C2.73602 6.24252 2.29352 6.69627 2.23102 7.26627L1.27477 15.9113C1.14977 17.05 1.54227 18.1663 2.35477 18.9775L11.6248 28.1688C12.8048 29.35 14.3735 29.9988 16.0423 29.9988H16.0635C17.741 29.9938 19.3135 29.3338 20.4923 28.14L24.451 24.13C25.6098 22.9563 26.1923 21.4313 26.2298 19.895L26.951 19.175C29.3573 16.7375 29.3435 12.785 26.911 10.3538L26.9073 10.355ZM7.49977 12.5C6.80977 12.5 6.24977 11.94 6.24977 11.25C6.25727 9.61502 8.74227 9.61627 8.74977 11.25C8.74977 11.94 8.18977 12.5 7.49977 12.5Z" fill="black"/>
</g>
<defs>
<clipPath id="clip0_880_9135">
<rect width="30" height="30" fill="white"/>
</clipPath>
</defs>
</svg>
